<?xml version="1.0" standalone="no"?>
<!DOCTYPE svg PUBLIC "-//W3C//DTD SVG 20010904//EN"
 "http://www.w3.org/TR/2001/REC-SVG-20010904/DTD/svg10.dtd">
<svg version="1.0" xmlns="http://www.w3.org/2000/svg"
 width="90.000000pt" height="90.000000pt" viewBox="0 0 90.000000 90.000000"
 preserveAspectRatio="xMidYMid meet">
<metadata>
Created by potrace 1.14, written by Peter Selinger 2001-2017
</metadata>
<g transform="translate(0.000000,90.000000) scale(0.100000,-0.100000)"
fill="#000000" stroke="none">
<path d="M387 836 c-28 -22 -51 -32 -68 -29 -13 2 -36 5 -50 7 -36 5 -43 -1
-71 -59 -18 -39 -31 -52 -56 -61 -61 -19 -75 -39 -68 -94 6 -46 -7 -100 -25
-100 -7 0 -22 -33 -24 -55 -2 -13 27 -65 36 -65 7 0 26 -41 24 -55 -1 -5 -5
-22 -9 -38 -11 -38 10 -66 63 -86 36 -13 45 -23 57 -56 20 -59 42 -74 101 -65
43 7 51 5 84 -21 47 -37 78 -37 119 0 26 22 40 28 64 24 37 -6 35 -6 67 -4 26
1 34 12 59 78 10 26 22 35 60 48 27 9 50 21 53 28 2 7 3 38 1 69 -3 50 0 61
22 85 39 43 41 69 6 112 -27 34 -30 43 -26 92 4 45 1 59 -16 77 -12 12 -26 22
-33 23 -20 1 -49 7 -51 11 -1 2 -13 27 -26 56 -13 28 -31 53 -39 53 -26 3 -44
1 -73 -4 -19 -4 -37 3 -65 22 -59 43 -68 44 -116 7z m101 -43 c23 -21 34 -24
86 -21 63 3 61 5 90 -62 11 -26 25 -39 53 -49 55 -20 63 -28 54 -59 -13 -44
-4 -80 27 -118 l30 -36 -32 -47 c-18 -25 -31 -55 -30 -66 1 -11 3 -29 4 -40 5
-41 0 -53 -28 -58 -37 -8 -82 -44 -82 -67 0 -10 -5 -22 -10 -25 -6 -4 -8 -11
-5 -16 6 -9 -6 -13 -40 -10 -75 5 -86 2 -120 -28 -20 -17 -40 -31 -44 -31 -5
0 -27 15 -50 34 -38 32 -43 33 -85 25 -59 -11 -73 -5 -80 36 -7 37 -43 72 -85
82 -33 8 -40 19 -34 52 11 56 7 83 -16 107 -25 27 -43 62 -33 66 4 2 19 18 35
36 21 26 27 42 24 68 -2 19 -6 37 -10 40 -14 14 16 44 54 54 36 10 43 17 65
67 23 51 27 55 53 50 15 -3 31 -7 37 -8 27 -5 52 4 82 31 36 32 50 31 90 -7z"/>
<path d="M407 709 c-27 -4 -63 -14 -81 -23 -35 -16 -106 -79 -106 -93 0 -5 -5
-14 -12 -21 -6 -6 -13 -17 -15 -24 -1 -7 -4 -21 -6 -30 -2 -10 -6 -20 -10 -24
-3 -4 -2 -15 3 -25 6 -11 6 -20 1 -23 -8 -5 -8 -34 -1 -43 2 -2 3 -11 4 -20 2
-35 36 -91 75 -126 40 -36 101 -73 101 -61 0 4 6 2 13 -3 6 -6 41 -10 77 -9
106 3 184 56 229 153 28 60 34 145 15 184 -7 15 -10 30 -6 34 4 5 1 5 -5 1 -9
-5 -13 0 -13 13 0 12 -4 21 -10 21 -5 0 -10 5 -10 10 0 13 -37 51 -71 73 -44
28 -120 44 -172 36z m90 -43 c43 -9 91 -38 122 -72 17 -19 29 -34 26 -34 -3 0
2 -14 11 -31 23 -45 20 -128 -7 -181 -52 -104 -160 -152 -278 -124 -34 8 -71
33 -109 74 -30 33 -36 45 -33 65 0 4 -3 7 -8 7 -6 0 -10 8 -10 18 0 9 0 35 -1
57 -1 61 9 91 48 143 51 68 146 99 239 78z"/>
<path d="M535 560 c-11 -5 -42 -31 -69 -59 -50 -50 -50 -51 -70 -32 -12 11
-34 27 -51 35 -27 14 -31 14 -52 -5 -28 -27 -18 -55 41 -115 78 -78 83 -77
186 25 49 48 88 94 86 102 -6 40 -37 62 -71 49z m35 -40 c0 -13 -144 -160
-156 -160 -6 0 -32 23 -59 51 -33 35 -45 53 -38 60 8 8 23 0 51 -25 22 -20 44
-36 49 -36 5 0 36 27 69 59 56 56 84 73 84 51z"/>
</g>
</svg>
